<svg width="74" height="82" viewBox="0 0 74 82" fill="none" xmlns="http://www.w3.org/2000/svg">
<path d="M71.6129 54.5399H61.8337H61.7764C66.4992 46.2172 66.7326 36.0805 62.3977 27.5494C62.4587 27.5268 62.5234 27.5153 62.5885 27.5155H71.6129C73.6464 27.5155 74.4691 24.7844 72.8003 23.6203L39.9809 1.81843C38.2099 0.586335 35.8593 0.586335 34.0883 1.81843L1.26253 23.6076C-0.406234 24.7717 0.414399 27.5028 2.44997 27.5028H11.5041C11.5624 27.503 11.6203 27.5122 11.6758 27.5303C7.33186 36.0659 7.56447 46.2123 12.2949 54.5399H2.44993C0.416465 54.5399 -0.406235 57.271 1.2625 58.435L34.082 80.2157C35.8529 81.4478 38.2035 81.4478 39.9745 80.2157L72.8088 58.4266C74.4775 57.2625 73.6549 54.5399 71.6129 54.5399ZM45.6169 57.6739C45.5515 57.8356 45.3673 57.9137 45.2055 57.8483C45.111 57.8101 45.0407 57.7285 45.0168 57.6294C44.1686 54.0522 41.5775 50.668 37.1184 50.668C32.6592 50.668 30.068 54.0501 29.2199 57.6294C29.1791 57.799 29.0085 57.9034 28.8388 57.8626C28.7396 57.8387 28.6581 57.7684 28.6198 57.6739C26.6948 52.9802 28.9392 47.6148 33.6328 45.6897C38.3264 43.7648 43.6919 46.0091 45.6169 50.7028C46.5329 52.9362 46.5329 55.4404 45.6169 57.6739ZM52.892 53.7681C52.2918 55.1986 51.464 56.5227 50.4408 57.6887C50.2513 57.893 49.932 57.9051 49.7276 57.7156C49.5818 57.5804 49.529 57.3723 49.5926 57.1841L49.6117 57.1374C51.8015 50.7404 48.6205 43.7459 42.3599 41.1921C36.039 38.5776 28.8149 41.3108 25.8209 47.3052L25.8039 47.3433C25.6883 47.5969 25.389 47.7088 25.1354 47.5932C24.9441 47.506 24.8269 47.3092 24.8413 47.0995C24.959 45.5563 25.3264 44.0425 25.929 42.617C29.0333 35.2422 37.5912 31.7627 45.0359 34.8415C52.4806 37.9202 55.9983 46.3955 52.892 53.7681ZM58.5683 43.9888C58.5081 44.3954 58.1298 44.6763 57.7231 44.6162C57.4057 44.5693 57.154 44.324 57.0988 44.0079C56.8903 42.7785 56.5527 41.5745 56.0916 40.4159C52.4551 31.2304 41.4779 26.3386 32.2647 29.9221C23.0516 33.5056 19.0907 44.1775 22.723 53.3631C23.1821 54.5238 23.7605 55.6338 24.449 56.6751C24.6713 57.0181 24.5734 57.4763 24.2305 57.6985C23.9596 57.8742 23.606 57.8539 23.357 57.6483C14.1436 50.0609 12.8256 36.4412 20.4131 27.2278C28.0005 18.0145 41.6203 16.6965 50.8336 24.2839C53.6981 26.6429 55.9068 29.6998 57.2472 33.16C58.6159 36.5948 59.0711 40.3257 58.5683 43.9888Z" fill="#E4F2FE"/>
</svg>
